<?xml version="1.0" encoding="UTF-8" standalone="no"?>
<svg width="24px" height="25px" viewBox="0 0 24 25" version="1.1" xmlns="http://www.w3.org/2000/svg" xmlns:xlink="http://www.w3.org/1999/xlink" xmlns:sketch="http://www.bohemiancoding.com/sketch/ns">
    <!-- Generator: Sketch 3.3.2 (12043) - http://www.bohemiancoding.com/sketch -->
    <title>account-circle</title>
    <desc>Created with Sketch.</desc>
    <defs></defs>
    <g id="Page-1" stroke="none" stroke-width="1" fill="none" fill-rule="evenodd" sketch:type="MSPage">
        <g id="Desktop-Landscape" sketch:type="MSArtboardGroup" transform="translate(-983.000000, -24.000000)" fill="#4B538B">
            <g id="User-Settings" sketch:type="MSLayerGroup" transform="translate(879.000000, 24.500000)">
                <g id="account-circle" transform="translate(104.000000, 0.000000)" sketch:type="MSShapeGroup">
                    <path d="M12,0 C5.4,0 0,5.4 0,12 C0,18.6 5.4,24 12,24 C18.6,24 24,18.6 24,12 C24,5.4 18.6,0 12,0 L12,0 Z M12,3.6 C14.04,3.6 15.6,5.16 15.6,7.2 C15.6,9.24 14.04,10.8 12,10.8 C9.96,10.8 8.4,9.24 8.4,7.2 C8.4,5.16 9.96,3.6 12,3.6 L12,3.6 Z M12,20.64 C9,20.64 6.36,19.08 4.8,16.8 C4.8,14.4 9.6,13.08 12,13.08 C14.4,13.08 19.2,14.4 19.2,16.8 C17.64,19.08 15,20.64 12,20.64 L12,20.64 Z" id="Shape"></path>
                </g>
            </g>
        </g>
    </g>
</svg>